<?xml version="1.0" encoding="UTF-8"?>
<!DOCTYPE svg PUBLIC "-//W3C//DTD SVG 1.1//EN" "http://www.w3.org/Graphics/SVG/1.1/DTD/svg11.dtd">
<svg xmlns="http://www.w3.org/2000/svg" version="1.1" width="317px" height="142px" style="shape-rendering:geometricPrecision; text-rendering:geometricPrecision; image-rendering:optimizeQuality; fill-rule:evenodd; clip-rule:evenodd" xmlns:xlink="http://www.w3.org/1999/xlink">
<g><path style="opacity:0.997" fill="#700CCC" d="M 290.5,-0.5 C 298.5,-0.5 306.5,-0.5 314.5,-0.5C 314.842,0.338246 315.508,0.67158 316.5,0.5C 316.5,47.5 316.5,94.5 316.5,141.5C 211.833,141.5 107.167,141.5 2.5,141.5C 1.36782,138.449 0.367817,135.449 -0.5,132.5C -0.5,126.833 -0.5,121.167 -0.5,115.5C 4.11847,102.723 13.1185,94.5568 26.5,91C 46.2572,85.993 66.2572,84.6597 86.5,87C 115.579,91.5411 144.746,95.3744 174,98.5C 199.501,97.9123 221.168,88.579 239,70.5C 240.333,67.8333 241.667,65.1667 243,62.5C 245.68,45.8163 251.68,30.4829 261,16.5C 269.043,7.56677 278.876,1.90011 290.5,-0.5 Z"/></g>
</svg>
